<svg width="1000" height="1000" viewBox="0 0 1000 1000" fill="none" xmlns="http://www.w3.org/2000/svg">
<circle cx="500" cy="500" r="500" fill="#BA0C2F"/>
<path fill-rule="evenodd" clip-rule="evenodd" d="M466.4 354.875C469.011 347.495 473.847 341.106 480.241 336.588C486.634 332.07 494.272 329.646 502.1 329.65H517.5C526.075 329.626 534.395 332.56 541.057 337.958C547.719 343.356 552.314 350.888 554.068 359.281C555.822 367.674 554.626 376.415 550.684 384.029C546.741 391.643 540.292 397.664 532.425 401.075L499.45 415.5C498.046 416.109 496.897 417.187 496.2 418.55H539.15C543.294 418.55 547.268 420.196 550.199 423.126C553.129 426.057 554.775 430.031 554.775 434.175C554.775 438.319 553.129 442.293 550.199 445.224C547.268 448.154 543.294 449.8 539.15 449.8H479.9C477.846 449.803 475.812 449.402 473.913 448.618C472.014 447.834 470.289 446.684 468.835 445.232C467.382 443.781 466.229 442.058 465.442 440.16C464.655 438.263 464.25 436.229 464.25 434.175V421.55C464.25 406.5 473.15 392.9 486.925 386.875L519.925 372.45C521.223 371.918 522.294 370.948 522.951 369.708C523.608 368.469 523.81 367.038 523.522 365.665C523.234 364.292 522.473 363.064 521.373 362.193C520.273 361.323 518.903 360.865 517.5 360.9H502.1C500.735 360.899 499.403 361.322 498.288 362.11C497.173 362.898 496.33 364.013 495.875 365.3C495.191 367.235 494.132 369.017 492.759 370.543C491.386 372.069 489.725 373.31 487.873 374.194C484.132 375.981 479.834 376.207 475.925 374.825C473.99 374.14 472.208 373.081 470.682 371.708C469.156 370.335 467.915 368.675 467.031 366.823C465.245 363.081 465.018 358.784 466.4 354.875ZM619 336.75C621.779 333.585 625.456 331.341 629.541 330.318C633.627 329.295 637.928 329.542 641.87 331.024C645.812 332.506 649.209 335.155 651.608 338.616C654.008 342.078 655.296 346.188 655.3 350.4V396.375C659.285 396.601 663.032 398.343 665.773 401.243C668.514 404.144 670.042 407.984 670.042 411.975C670.042 415.966 668.514 419.806 665.773 422.707C663.032 425.607 659.285 427.349 655.3 427.575V434.2C655.3 438.344 653.654 442.318 650.724 445.249C647.793 448.179 643.819 449.825 639.675 449.825C635.531 449.825 631.557 448.179 628.627 445.249C625.696 442.318 624.05 438.344 624.05 434.2V427.6H585.8C581.757 427.607 577.799 426.447 574.399 424.259C570.999 422.071 568.303 418.949 566.635 415.266C564.967 411.584 564.397 407.498 564.994 403.499C565.591 399.501 567.329 395.76 570 392.725L619 336.75ZM608.375 396.35L624.05 378.425V396.35H608.375ZM547.875 670C532.535 671.643 517.094 667.982 504.125 659.625C439.406 616.032 383.718 560.345 340.125 495.625C331.937 482.529 328.487 467.02 330.353 451.688C332.218 436.355 339.285 422.126 350.375 411.375L359.875 401.875C364.134 397.661 369.884 395.298 375.875 395.298C381.867 395.298 387.616 397.661 391.875 401.875L430.375 441.875C434.573 446.092 436.93 451.8 436.93 457.75C436.93 463.7 434.573 469.408 430.375 473.625C426.162 477.884 423.798 483.634 423.798 489.625C423.798 495.616 426.162 501.366 430.375 505.625L494.125 569.375C498.384 573.589 504.134 575.952 510.125 575.952C516.117 575.952 521.866 573.589 526.125 569.375C530.342 565.177 536.05 562.82 542 562.82C547.95 562.82 553.658 565.177 557.875 569.375L597.875 609.125C602.089 613.384 604.452 619.134 604.452 625.125C604.452 631.116 602.089 636.866 597.875 641.125L588.375 650.625C577.481 661.515 563.19 668.352 547.875 670Z" fill="white"/>
</svg>
