<svg width="1000" height="1000" viewBox="0 0 1000 1000" fill="none" xmlns="http://www.w3.org/2000/svg">
<circle cx="500" cy="500" r="500" fill="#BA0C2F"/>
<path d="M647.459 419.325L538.084 359.169C536.469 358.28 534.656 357.814 532.813 357.814C530.969 357.814 529.156 358.28 527.541 359.169L418.166 419.325C416.451 420.269 415.021 421.656 414.025 423.342C413.029 425.027 412.503 426.949 412.503 428.906C412.503 430.864 413.029 432.786 414.025 434.471C415.021 436.156 416.451 437.543 418.166 438.488L521.875 495.527V612.766L488.669 594.5L478.125 613.652L527.541 640.831C529.155 641.722 530.969 642.189 532.813 642.189C534.656 642.189 536.47 641.722 538.084 640.831L647.459 580.675C649.175 579.731 650.606 578.344 651.602 576.659C652.599 574.974 653.125 573.052 653.125 571.094V428.906C653.125 426.948 652.599 425.026 651.602 423.341C650.606 421.656 649.175 420.269 647.459 419.325ZM532.813 381.241L619.492 428.906L532.813 476.572L446.133 428.906L532.813 381.241ZM631.25 564.63L543.75 612.755V495.516L631.25 447.391V564.63Z" fill="white"/>
<path d="M434.375 500H346.875V478.125H434.375V500ZM456.25 587.5H368.75V565.625H456.25V587.5ZM478.125 543.75H390.625V521.875H478.125V543.75Z" fill="white"/>
</svg>
