<svg width="1000" height="1000" viewBox="0 0 1000 1000" fill="none" xmlns="http://www.w3.org/2000/svg">
<circle cx="500" cy="500" r="500" fill="#BA0C2F"/>
<path d="M448.958 543.75H551.042M448.958 587.5H500M602.083 354.167H397.917C394.049 354.167 390.34 355.703 387.605 358.438C384.87 361.173 383.333 364.882 383.333 368.75V631.25C383.333 635.118 384.87 638.827 387.605 641.562C390.34 644.297 394.049 645.833 397.917 645.833H602.083C605.951 645.833 609.66 644.297 612.395 641.562C615.13 638.827 616.667 635.118 616.667 631.25V368.75C616.667 364.882 615.13 361.173 612.395 358.438C609.66 355.703 605.951 354.167 602.083 354.167Z" stroke="white" stroke-width="29.1667" stroke-linecap="round" stroke-linejoin="round"/>
<path d="M543.75 419.792L485.417 478.125L456.25 448.958" stroke="white" stroke-width="29.1667" stroke-linecap="round" stroke-linejoin="round"/>
</svg>
